<svg xmlns="http://www.w3.org/2000/svg" version="1.1" xmlns:xlink="http://www.w3.org/1999/xlink" xmlns:svgjs="http://svgjs.dev/svgjs" width="1463" height="560" preserveAspectRatio="none" viewBox="0 0 1463 560"><g mask="url(&quot;#SvgjsMask1067&quot;)" fill="none"><rect width="1463" height="560" x="0" y="0" fill="rgba(185, 218, 239, 1)"></rect><path d="M0,641.249C119.474,656.995,248.585,602.892,330.884,514.865C408.746,431.585,377.658,297.67,420.139,191.871C459.754,93.211,565.5,24.162,570.556,-82.034C575.89,-194.068,529.28,-310.952,447.746,-387.974C368.501,-462.833,248.699,-460.501,142.751,-486.164C42.382,-510.476,-57.477,-562.279,-156.925,-534.439C-256.751,-506.493,-333.924,-424.941,-389.204,-337.247C-439.909,-256.811,-422.633,-155.278,-452.785,-65.101C-492.008,52.203,-633.029,153.72,-592.434,270.556C-552.959,384.168,-381.17,370.662,-279.21,434.46C-179,497.162,-117.197,625.803,0,641.249" fill="#a8d1eb"></path><path d="M1463 989.0509999999999C1541.407 968.4549999999999 1572.828 876.5609999999999 1628.681 817.8050000000001 1669.59 774.77 1711.877 737.461 1747.392 689.877 1792.349 629.641 1868.762 577.345 1864.142 502.324 1859.558 427.89 1783.211 379.735 1725.393 332.635 1675.1970000000001 291.744 1616.759 266.038 1554.097 249.753 1493.079 233.89600000000002 1428.867 220.12 1369.048 240.02800000000002 1310.134 259.635 1270.951 311.44 1229.592 357.751 1187.618 404.75 1133.635 449.01 1126.497 511.618 1119.4 573.869 1177.1399999999999 622.802 1192.446 683.558 1212.552 763.366 1175.453 860.913 1230.019 922.5260000000001 1284.673 984.238 1383.271 1009.994 1463 989.0509999999999" fill="#cae3f3"></path></g><defs><mask id="SvgjsMask1067"><rect width="1463" height="560" fill="#ffffff"></rect></mask></defs></svg>